# xmcd CD database file
#
# Track frame offsets:
#	150
#	12947
#	25220
#	39930
#	52771
#	67001
#	81394
#	94444
#	107116
#	119652
#	131520
#	144420
#	157852
#	169925
#	181465
#	194770
#	206825
#	217622
#	230545
#	241982
#
# Disc length: 3403 seconds
#
# Revision: 0
# Processed by: cddbd v1.5.2PL0 Copyright (c) Steve Scherf et al.
# Submitted via: CDex 1.70beta2
#
DISCID=1b0d4914
DTITLE=John Kirby - Jazz Roads CD139- Swing - John Kirby Vol.2 (1940-41)
DYEAR=2006
DGENRE=Jazz
TTITLE0=John Kirby And His Orchestra - Jumpin' in The Pump Room
TTITLE1=John Kirby And His Orchestra - Milumbu
TTITLE2=John Kirby And His Orchestra - Go Your Way
TTITLE3=John Kirby And His Orchestra - 20th Century Closet
TTITLE4=John Kirby And His Orchestra - Temptation
TTITLE5=John Kirby And His Orchestra - Blues Petite
TTITLE6=John Kirby And His Orchestra - On A Little Street In Singapore
TTITLE7=John Kirby And His Orchestra - Chloe
TTITLE8=John Kirby And His Orchestra - Andiology
TTITLE9=John Kirby And His Orchestra - Can't We Be Friends
TTITLE10=John Kirby And His Orchestra - Then I'll Be Happy
TTITLE11=John Kirby And His Orchestra - I Love You Truly
TTITLE12=John Kirby And His Orchestra - Frasquita Serenade
TTITLE13=John Kirby And His Orchestra - Sextet From 'Lucia'
TTITLE14=John Kirby And His Orchestra - Coquette
TTITLE15=John Kirby And His Orchestra - Zooming At the Zombie
TTITLE16=John Kirby And His Orchestra - Bounce Of The Sugar Plum Fairy
TTITLE17=John Kirby And His Orchestra - Beethoven Riffs On
TTITLE18=John Kirby And His Orchestra - Double Talk
TTITLE19=John Kirby And His Orchestra - Cuttin' The Campus
EXTD=YEAR: 2006
EXTT0=
EXTT1=
EXTT2=
EXTT3=
EXTT4=
EXTT5=
EXTT6=
EXTT7=
EXTT8=
EXTT9=
EXTT10=
EXTT11=
EXTT12=
EXTT13=
EXTT14=
EXTT15=
EXTT16=
EXTT17=
EXTT18=
EXTT19=
PLAYORDER=
